<svg width="21" height="20" viewBox="0 0 21 20" fill="none" xmlns="http://www.w3.org/2000/svg">
<path d="M19.5428 6.64C19.5428 6.64 19.5428 6.64 19.5428 6.59C18.8382 4.66623 17.5597 3.00529 15.8803 1.83187C14.2009 0.658447 12.2016 0.0291748 10.1528 0.0291748C8.10407 0.0291748 6.10476 0.658447 4.42533 1.83187C2.74591 3.00529 1.46743 4.66623 0.762825 6.59C0.762825 6.59 0.762825 6.59 0.762825 6.64C-0.0240504 8.8109 -0.0240504 11.1891 0.762825 13.36C0.762825 13.36 0.762825 13.36 0.762825 13.41C1.46743 15.3338 2.74591 16.9947 4.42533 18.1681C6.10476 19.3416 8.10407 19.9708 10.1528 19.9708C12.2016 19.9708 14.2009 19.3416 15.8803 18.1681C17.5597 16.9947 18.8382 15.3338 19.5428 13.41C19.5428 13.41 19.5428 13.41 19.5428 13.36C20.3297 11.1891 20.3297 8.8109 19.5428 6.64ZM2.39283 12C2.04605 10.6892 2.04605 9.31079 2.39283 8H4.25282C4.09286 9.32854 4.09286 10.6715 4.25282 12H2.39283ZM3.21282 14H4.61282C4.84754 14.8918 5.18304 15.7541 5.61282 16.57C4.63212 15.9019 3.81232 15.0241 3.21282 14ZM4.61282 6H3.21282C3.80369 4.97909 4.61302 4.10147 5.58282 3.43C5.16338 4.24725 4.83797 5.10942 4.61282 6ZM9.13282 17.7C7.90459 16.7987 7.04197 15.4852 6.70282 14H9.13282V17.7ZM9.13282 12H6.27283C6.08622 10.6732 6.08622 9.32681 6.27283 8H9.13282V12ZM9.13282 6H6.70282C7.04197 4.51477 7.90459 3.20132 9.13282 2.3V6ZM17.0528 6H15.6528C15.4181 5.10816 15.0826 4.24594 14.6528 3.43C15.6335 4.09807 16.4533 4.97594 17.0528 6ZM11.1328 2.3C12.3611 3.20132 13.2237 4.51477 13.5628 6H11.1328V2.3ZM11.1328 17.7V14H13.5628C13.2237 15.4852 12.3611 16.7987 11.1328 17.7ZM13.9928 12H11.1328V8H13.9928C14.1794 9.32681 14.1794 10.6732 13.9928 12ZM14.6828 16.57C15.1126 15.7541 15.4481 14.8918 15.6828 14H17.0828C16.4833 15.0241 15.6635 15.9019 14.6828 16.57ZM17.8728 12H16.0128C16.0942 11.3365 16.1342 10.6685 16.1328 10C16.1339 9.33151 16.0938 8.66357 16.0128 8H17.8728C18.2196 9.31079 18.2196 10.6892 17.8728 12Z" fill="white"/>
</svg>
