<svg width="21" height="20" viewBox="0 0 21 20" fill="none" xmlns="http://www.w3.org/2000/svg">
<path d="M13.7745 10.6582C13.6727 10.6178 13.564 10.5977 13.4544 10.5992C13.3449 10.6008 13.2368 10.6239 13.1362 10.6672C13.0356 10.7106 12.9445 10.7733 12.8681 10.8518C12.7918 10.9303 12.7316 11.0231 12.6911 11.1249C12.6507 11.2267 12.6306 11.3354 12.6321 11.445C12.6337 11.5545 12.6568 11.6626 12.7001 11.7632C12.7434 11.8638 12.8062 11.9549 12.8847 12.0313C12.9632 12.1076 13.056 12.1678 13.1578 12.2082C14.3745 12.6916 15.1328 13.4416 15.1328 14.1666C15.1328 15.3499 13.0828 16.6666 10.1328 16.6666C7.18281 16.6666 5.13281 15.3499 5.13281 14.1666C5.13281 13.4416 5.89114 12.6916 7.10781 12.2082C7.31335 12.1265 7.47799 11.9664 7.56551 11.7632C7.65303 11.5601 7.65625 11.3305 7.57448 11.1249C7.4927 10.9194 7.33263 10.7547 7.12946 10.6672C6.9263 10.5797 6.69669 10.5765 6.49114 10.6582C4.59948 11.4082 3.46614 12.7166 3.46614 14.1666C3.46614 16.4999 6.39114 18.3332 10.1328 18.3332C13.8745 18.3332 16.7995 16.4999 16.7995 14.1666C16.7995 12.7166 15.6661 11.4082 13.7745 10.6582ZM9.29948 8.21658V14.1666C9.29948 14.3876 9.38728 14.5996 9.54356 14.7558C9.69984 14.9121 9.9118 14.9999 10.1328 14.9999C10.3538 14.9999 10.5658 14.9121 10.7221 14.7558C10.8783 14.5996 10.9661 14.3876 10.9661 14.1666V8.21658C11.7517 8.01375 12.4363 7.53139 12.8916 6.85991C13.347 6.18843 13.5418 5.37393 13.4396 4.56908C13.3373 3.76424 12.9451 3.0243 12.3363 2.48798C11.7276 1.95166 10.9441 1.65576 10.1328 1.65576C9.3215 1.65576 8.53804 1.95166 7.92928 2.48798C7.32053 3.0243 6.92827 3.76424 6.82605 4.56908C6.72382 5.37393 6.91863 6.18843 7.37398 6.85991C7.82932 7.53139 8.51393 8.01375 9.29948 8.21658ZM10.1328 3.33325C10.4624 3.33325 10.7847 3.431 11.0588 3.61413C11.3328 3.79727 11.5465 4.05757 11.6726 4.36211C11.7988 4.66665 11.8318 5.00176 11.7675 5.32507C11.7031 5.64837 11.5444 5.94534 11.3113 6.17843C11.0782 6.41151 10.7813 6.57025 10.458 6.63456C10.1347 6.69887 9.79955 6.66586 9.49501 6.53971C9.19046 6.41357 8.93016 6.19995 8.74703 5.92586C8.56389 5.65178 8.46614 5.32955 8.46614 4.99991C8.46614 4.55789 8.64174 4.13396 8.9543 3.8214C9.26686 3.50884 9.69078 3.33325 10.1328 3.33325Z" fill="#4F4F4F"/>
</svg>
